<svg xmlns="http://www.w3.org/2000/svg" width="300" height="300" viewBox="0 0 300 300"><title>favicon</title><g id="be1b52ab-bdbf-40a8-a8e9-eeb7f73973bf" data-name="Layer 2"><g id="a0c7678b-fb74-40e4-86d7-426be8cb1ae8" data-name="Layer 1"><rect width="300" height="300" fill="#fff"/><path d="M51.22,191.72c-1.68-1.68-2.52-4.08-2.52-7.22v-2.76q0-4.71,2.52-7.23c1.68-1.67,4.08-2.51,7.22-2.51h2.11q4.71,0,7.23,2.51t2.51,7.23v2.76c0,3.14-.84,5.54-2.51,7.22s-4.09,2.52-7.23,2.52H58.44C55.3,194.24,52.9,193.4,51.22,191.72Z" fill="#eeb500"/><path d="M153.57,179.14a8.82,8.82,0,0,1,2.6,6.49,8.35,8.35,0,0,1-2.6,6.25,9,9,0,0,1-6.49,2.52H91.88a8.68,8.68,0,0,1-6.65-2.6,9.31,9.31,0,0,1-2.44-6.65A10.12,10.12,0,0,1,85.71,178l35.39-37.82a62.82,62.82,0,0,0,9.5-13.07A26,26,0,0,0,134.09,115a17.61,17.61,0,0,0-5.19-12.67,16.28,16.28,0,0,0-12-5.35,17.12,17.12,0,0,0-9.49,3.16,35.12,35.12,0,0,0-8.69,8.36,9,9,0,0,1-7.47,3.9,9.52,9.52,0,0,1-6.57-2.76,8.25,8.25,0,0,1-3-6.17,9.13,9.13,0,0,1,1.62-4.95,36,36,0,0,1,4.87-5.76,48.71,48.71,0,0,1,14.29-9.91A37.21,37.21,0,0,1,118,79.14a38,38,0,0,1,18.83,4.54,31.64,31.64,0,0,1,12.5,12.5,36.75,36.75,0,0,1,4.38,18,45.22,45.22,0,0,1-5.27,20.38,87,87,0,0,1-14.21,20l-20.61,21.91h33.44A8.82,8.82,0,0,1,153.57,179.14Z" fill="#ff2358"/><path d="M187.42,188.72q-9.82-7.31-14.86-20.54t-5-30.6q0-17.37,5-30.6t14.86-20.54q9.81-7.31,23.46-7.3t23.45,7.3q9.82,7.31,14.86,20.54t5,30.6q0,17.37-5,30.6t-14.86,20.54q-9.83,7.31-23.45,7.3T187.42,188.72Zm39.77-22.08q5.92-9.9,5.93-29.06t-5.93-29.06q-5.92-9.9-16.31-9.9t-16.32,9.9q-5.92,9.92-5.92,29.06t5.92,29.06q5.92,9.9,16.32,9.9T227.19,166.64Z" fill="#ff2358"/></g></g></svg>