<?xml version="1.0" encoding="utf-8"?>
<!-- Generator: Adobe Illustrator 25.1.0, SVG Export Plug-In . SVG Version: 6.00 Build 0)  -->
<svg version="1.1" id="Layer_1" xmlns="http://www.w3.org/2000/svg" xmlns:xlink="http://www.w3.org/1999/xlink" x="0px" y="0px"
	 viewBox="0 0 300 300" style="enable-background:new 0 0 300 300;" xml:space="preserve">
<style type="text/css">
	.st0{fill:#FFFFFF;}
	.st1{fill:#EEB500;}
	.st2{fill:#FF2358;}
</style>
<g id="be1b52ab-bdbf-40a8-a8e9-eeb7f73973bf">
	<g id="a0c7678b-fb74-40e4-86d7-426be8cb1ae8">
		<rect class="st0" width="300" height="300"/>
		<path class="st1" d="M51.2,191.7c-1.7-1.7-2.5-4.1-2.5-7.2v-2.8c0-3.1,0.8-5.6,2.5-7.2c1.7-1.7,4.1-2.5,7.2-2.5h2.1
			c3.1,0,5.6,0.8,7.2,2.5c1.7,1.7,2.5,4.1,2.5,7.2v2.8c0,3.1-0.8,5.5-2.5,7.2s-4.1,2.5-7.2,2.5h-2.1
			C55.3,194.2,52.9,193.4,51.2,191.7z"/>
		<path class="st2" d="M153.6,179.1c1.7,1.7,2.7,4.1,2.6,6.5c0.1,2.4-0.9,4.6-2.6,6.2c-1.7,1.7-4.1,2.6-6.5,2.5H91.9
			c-2.5,0.1-4.9-0.8-6.7-2.6c-1.7-1.8-2.5-4.2-2.4-6.6c0-2.7,1-5.2,2.9-7.2l35.4-37.8c3.7-3.9,6.9-8.3,9.5-13.1
			c2.1-3.7,3.3-7.8,3.5-12.1c0-4.8-1.8-9.3-5.2-12.7c-3.1-3.4-7.4-5.3-12-5.3c-3.4,0.1-6.7,1.2-9.5,3.2c-3.4,2.3-6.3,5.1-8.7,8.4
			c-1.7,2.5-4.5,3.9-7.5,3.9c-2.5,0-4.8-1-6.6-2.8c-1.8-1.5-2.9-3.8-3-6.2c0-1.8,0.6-3.5,1.6-4.9c1.4-2.1,3-4,4.9-5.8
			c4.1-4.1,9-7.5,14.3-9.9c4.9-2.3,10.2-3.6,15.5-3.7c6.6-0.1,13.1,1.4,18.8,4.5c5.3,2.9,9.6,7.2,12.5,12.5c3,5.5,4.5,11.7,4.4,18
			c-0.1,7.1-1.9,14.1-5.3,20.4c-3.8,7.3-8.6,14-14.2,20l-20.6,21.9h33.4C149.5,176.4,151.9,177.4,153.6,179.1z"/>
		<path class="st2" d="M218,82c1.9,1.9,2.8,4.3,2.8,7.2v95.2c0.1,2.7-1.1,5.3-3.1,7.2c-2.1,1.9-4.7,2.9-7.7,2.9s-5.6-1-7.6-2.9
			c-2-1.9-3-4.3-3-7.2v-78.1l-10.2,6.3c-1.6,1-3.4,1.5-5.3,1.5c-2.7,0-5.1-1-7-3.1c-1.9-2.1-2.9-4.4-2.9-6.9c0-1.7,0.5-3.5,1.4-4.9
			c0.9-1.5,2.2-2.8,3.7-3.6L204,80.6c1.9-1,4.2-1.5,7.1-1.5C213.8,79.1,216.1,80.1,218,82z"/>
	</g>
</g>
</svg>
