<svg xmlns="http://www.w3.org/2000/svg" width="5167.91" height="536.3" viewBox="0 0 5167.91 536.3"><g id="e8b3d4ff-e30f-4d2f-91da-d675d12ceaff" data-name="Layer 2"><g id="ef0b16a1-2ae9-420d-bc93-bebe49719f27" data-name="Layer 1"><g id="b2536582-3e6b-49b7-a521-4002630dcc38" data-name="fb53ae89-f2d4-41e5-b6de-51f9070cc643"><g id="be8c5436-41a6-41c4-a6c4-cba02ae38f91" data-name="a569e0af-d7f8-42e4-851f-632144efca7c"><g id="ebe49611-c938-412d-94d3-96a7c09c0b94" data-name="b5370cd0-1928-4b4c-9416-49a7ccc021da"><g id="acd8dc1d-b8fb-4f02-87a7-7c10ff5a0230" data-name="e65830ce-9456-4d0f-bd7c-c8fc3dc33335"><path d="M155.51,75.78q-11.08,14.31-11.08,35v50.05h70.83q14.3,0,23.24,8.94t8.94,22.52q0,13.59-8.94,22.17t-23.24,8.62H144.43V494.79a33.78,33.78,0,0,1-9.65,24.31q-9.66,10-24.67,10a31.89,31.89,0,0,1-24-10,33.73,33.73,0,0,1-9.66-24.31V223.08H32.17q-13.59,0-22.88-8.58T0,192.33q0-13.58,9.29-22.52t22.88-8.94H76.5V110.82q0-50,32.18-79.73T199.49,1.42q24.3,0,42.9,8.94T261,37.17q0,13.59-8.22,22.52t-19.67,8.94q-2.87,0-15.73-2.86-15.74-4.29-27.17-4.29Q166.6,61.48,155.51,75.78Z" fill="#008ecc"/><path d="M527.69,155.51q13.57,9.65,13.57,24,0,17.16-8.94,26.1a29.66,29.66,0,0,1-21.8,8.94q-6.43,0-19.31-4.29-15-5-23.6-5-22.17,0-43.26,15.37T390,262.77q-13.23,26.82-13.22,59.71V494.79a33.73,33.73,0,0,1-9.66,24.31q-9.64,10-24.67,10t-24.31-9.65q-9.3-9.66-9.29-24.67v-306a33.8,33.8,0,0,1,9.65-24.32,31.92,31.92,0,0,1,24-10q15,0,24.67,10a33.75,33.75,0,0,1,9.66,24.32v36.46A135.24,135.24,0,0,1,424,168.4q31.46-21.81,71.5-22.53Q514.11,145.86,527.69,155.51Z" fill="#008ecc"/><path d="M918.1,441.88q-25,44.34-68.29,69.35t-95.46,25q-52.2,0-95.45-25t-68.29-69.35q-25-44.34-25-100.11t25-100.82q25-45,68.29-70.07t95.45-25q52.2,0,95.46,25T918.1,241q25,45,25,100.82T918.1,441.88Zm-59-169.11Q843,242.4,815.48,225.58t-61.14-16.8q-33.62,0-61.13,16.8t-43.62,47.19q-16.08,30.41-16.08,69,0,37.91,16.08,67.93t43.67,46.83q27.53,16.82,61.13,16.81t61.14-16.81Q843,439.75,859.15,409.7t16.08-67.93q0-38.61-16.12-69Z" fill="#008ecc"/><path d="M1341.38,300.3V494.79a33.68,33.68,0,0,1-9.65,24.31q-9.64,10-24.67,10a31.89,31.89,0,0,1-24-10,33.68,33.68,0,0,1-9.65-24.31V301q0-42.19-19.31-67.22t-62.92-25q-28.61,0-51.84,12.51t-36.47,33.61a85.09,85.09,0,0,0-13.18,46.1V494.79A33.7,33.7,0,0,1,1080,519.1q-9.64,10-24.67,10T1031,519.45q-9.3-9.66-9.29-24.67v-306a33.76,33.76,0,0,1,9.65-24.32,31.94,31.94,0,0,1,23.95-10q15,0,24.67,10a33.8,33.8,0,0,1,9.65,24.32v25q18.58-28.59,51.84-48.26a137.5,137.5,0,0,1,71.15-19.67Q1341.39,145.85,1341.38,300.3Z" fill="#008ecc"/><path d="M1544.44,220.93V434q0,35.76,32.18,35.75c3.33,0,7.87-.82,13.59-2.5s10.24-2.5,13.58-2.5q9.29,0,15.73,7.86t6.44,20q0,15-17.16,25.74a71.36,71.36,0,0,1-38.62,10.73,175,175,0,0,1-43.25-5q-19.68-5-35-25.38t-15.37-61.85V220.93h-41.48q-13.59,0-22.52-8.94t-8.94-22.52q0-13.58,8.94-22.17t22.52-8.58h41.48V98.66a33.68,33.68,0,0,1,9.65-24.31q9.64-10,24.67-10a31.92,31.92,0,0,1,24,10,33.68,33.68,0,0,1,9.65,24.31v60.06h59.35q13.57,0,22.52,8.94t8.94,22.53q0,13.59-8.94,22.16t-22.52,8.58Z" fill="#008ecc"/><path d="M2029.26,349.28a34.27,34.27,0,0,1-23.59,8.94H1754q5,52.2,39.68,83.66t84.73,31.46q34.32,0,55.77-10A140,140,0,0,0,1972,437.6q10.73-6.44,20.74-6.44a27.06,27.06,0,0,1,20.37,8.58,28,28,0,0,1,8.23,20q0,15-14.3,27.17-20.74,20.74-55.06,35a180.61,180.61,0,0,1-70.07,14.3q-57.92,0-101.89-24.31a169.27,169.27,0,0,1-67.93-67.9q-24-43.61-24-98.67,0-60.06,24.67-105.47t65.07-69.72a167.57,167.57,0,0,1,172.68-.71q40,23.59,64.35,65.07t25,93A30.6,30.6,0,0,1,2029.26,349.28Zm-233.81-118q-29.33,22.51-38.61,69.72h210.93v-5.73q-3.58-37.89-34-62.2t-69-24.31q-40.05,0-69.35,22.54Z" fill="#008ecc"/><path d="M2438.26,300.3V494.79a33.68,33.68,0,0,1-9.65,24.31q-9.65,10-24.67,10a31.89,31.89,0,0,1-24-10,33.68,33.68,0,0,1-9.65-24.31V301q0-42.19-19.31-67.22t-62.92-25q-28.61,0-51.84,12.51t-36.51,33.61a85.09,85.09,0,0,0-13.23,46.1V494.79a33.68,33.68,0,0,1-9.65,24.31q-9.64,10-24.67,10t-24.31-9.65q-9.3-9.66-9.29-24.67v-306a33.8,33.8,0,0,1,9.65-24.32,31.94,31.94,0,0,1,23.95-10q15,0,24.67,10a33.8,33.8,0,0,1,9.65,24.32v25q18.58-28.59,51.84-48.26a137.5,137.5,0,0,1,71.15-19.67Q2438.28,145.85,2438.26,300.3Z" fill="#008ecc"/><path d="M2868.26,9.64q9.66,9.66,9.66,24.67V494.79a33.73,33.73,0,0,1-9.66,24.31q-9.65,10-24.66,10t-24.31-9.65q-9.3-9.66-9.3-24.67v-20q-17.88,25.74-50.41,43.61a142.62,142.62,0,0,1-69.71,17.88q-48.64,0-88-25t-62.21-69.71q-22.89-44.68-22.88-100.46t22.52-100.46q22.53-44.68,61.85-69.72a158,158,0,0,1,86.52-25q37.89,0,70.07,15.73t52.2,40.76v-168q0-15,9.3-24.67T2843.64,0Q2858.66,0,2868.26,9.64ZM2757.48,456.18Q2783.56,439,2798.26,409t14.66-67.92q0-37.17-14.66-67.57T2757.51,226q-26.12-17.16-59.71-17.16T2638.1,226q-26.11,17.16-40.76,47.55t-14.66,67.57q0,37.9,14.66,67.92t40.76,47.2q26.08,17.16,59.7,17.16T2757.48,456.18Z" fill="#008ecc"/><path d="M3235.83,163.73q37.53,17.88,37.54,45.76a33.7,33.7,0,0,1-7.87,21.81,24.74,24.74,0,0,1-20,9.65q-9.3,0-14.66-2.86a159.42,159.42,0,0,1-14.65-9.29q-4.3-4.29-13.59-10-8.58-4.29-24.31-7.15a161.5,161.5,0,0,0-28.6-2.86q-37.18,0-65.79,17.16a116.86,116.86,0,0,0-44.33,47.55q-15.74,30.39-15.73,67.57,0,37.9,15.38,67.92a116.35,116.35,0,0,0,43.26,47.2q27.89,17.16,63.63,17.16,37.17,0,60.06-11.44a141.2,141.2,0,0,0,13.59-9.3,84.32,84.32,0,0,1,12.5-8.61,27.92,27.92,0,0,1,13.23-2.86q14.3,0,22.53,8.94t8.22,23.24q0,15-18.95,29.67t-50.77,24a242.86,242.86,0,0,1-68.28,9.3q-54.34,0-95.82-25.38t-64-70.08q-22.53-44.67-22.53-99.74t23.6-99.75q23.6-44.68,65.78-70.07t96.53-25.39Q3198.26,145.85,3235.83,163.73Z" fill="#008ecc"/><path d="M3675.92,441.88q-25,44.34-68.28,69.35t-95.46,25q-52.2,0-95.46-25t-68.28-69.35q-25-44.34-25-100.11t25-100.82q25-45,68.28-70.07t95.46-25q52.18,0,95.46,25T3675.92,241q25,45,25,100.82T3675.92,441.88Zm-59-169.11q-16.08-30.37-43.61-47.19t-61.14-16.8q-33.61,0-61.13,16.8t-43.62,47.19q-16.1,30.41-16.09,69,0,37.91,16.09,67.93T3451,456.53q27.51,16.82,61.13,16.81t61.14-16.81q27.51-16.78,43.61-46.83T3633,341.77q0-38.61-16.08-69Z" fill="#008ecc"/><path d="M4099.26,300.3V494.79a33.78,33.78,0,0,1-9.65,24.31q-9.66,10-24.67,10a31.89,31.89,0,0,1-24-10,33.73,33.73,0,0,1-9.66-24.31V301q0-42.19-19.3-67.22t-62.93-25q-28.61,0-51.84,12.51t-36.46,33.61a85,85,0,0,0-13.23,46.1V494.79a33.78,33.78,0,0,1-9.65,24.31q-9.66,10-24.67,10t-24.31-9.65q-9.3-9.66-9.3-24.67v-306a33.75,33.75,0,0,1,9.66-24.32,31.92,31.92,0,0,1,24-10q15,0,24.67,10a33.8,33.8,0,0,1,9.65,24.32v25q18.58-28.59,51.84-48.26a137.4,137.4,0,0,1,71.15-19.67Q4099.26,145.85,4099.26,300.3Z" fill="#008ecc"/><path d="M4326.26,75.78q-11.1,14.31-11.09,35v50.05H4386q14.3,0,23.24,8.94t8.94,22.52q0,13.59-8.94,22.17T4386,223h-70.79V494.79a33.68,33.68,0,0,1-9.65,24.31q-9.66,10-24.67,10a31.89,31.89,0,0,1-24-10,33.73,33.73,0,0,1-9.66-24.31V223.08H4202.9q-13.59,0-22.88-8.58t-9.29-22.17q0-13.58,9.29-22.52t22.88-8.94h44.4V110.82q0-50,32.18-79.73t90.81-29.67q24.3,0,42.9,8.94t18.59,26.81q0,13.59-8.22,22.52t-19.66,8.94q-2.86,0-15.73-2.86-15.75-4.29-27.18-4.29Q4337.26,61.48,4326.26,75.78Z" fill="#008ecc"/><path d="M4448.26,517q-11.1-11.07-11.08-31.82V473q0-20.73,11.08-31.82t31.82-11.09h9.29q20.73,0,31.82,11.09T4532.26,473v12.15q0,20.75-11.09,31.82t-31.82,11.08h-9.29Q4459.25,528.05,4448.26,517Z" fill="#eeb500"/><path d="M4899.05,461.56q11.43,11.44,11.44,28.6,0,16.45-11.44,27.53t-28.6,11.08H4627.34q-18.6,0-29.32-11.44T4587.26,488q0-17.87,12.87-31.46L4756,290q26.44-28.59,41.83-57.56t15.39-53.32q0-32.18-22.88-55.77t-52.92-23.6q-20.74,0-41.83,13.94t-38.25,36.83q-12.87,17.16-32.89,17.16-15.73,0-29-12.16t-13.23-27.17q0-10.72,7.15-21.81t21.45-25.38a215.66,215.66,0,0,1,62.93-43.62q35.74-16.44,68.64-16.44,47.19,0,82.94,20t55.06,55.06q19.3,35,19.31,79.36,0,43.64-23.24,89.74t-62.57,88.31l-90.81,96.52h147.3Q4887.62,450.11,4899.05,461.56Z" fill="#ff2358"/></g></g></g></g><path d="M5155.43,30.92q12.48,12.86,12.48,31.92V487A41.64,41.64,0,0,1,5154,518.93q-13.95,12.86-34.49,12.84t-33.76-12.84q-13.22-12.82-13.21-31.92V139.16L5027,167.05a44.92,44.92,0,0,1-23.48,6.6q-18.36,0-31.19-13.94t-12.84-30.82a41.73,41.73,0,0,1,6.23-22,45.39,45.39,0,0,1,16.52-16.14l110.81-66.05q12.46-6.6,31.55-6.6Q5143,18.08,5155.43,30.92Z" fill="#ff2358"/></g></g></svg>