<svg id="eea8e7ab-3b68-4646-a8c3-dd65e40aa4f6" data-name="Layer 1" xmlns="http://www.w3.org/2000/svg" width="32" height="32" viewBox="0 0 32 32"><title>date</title><path d="M23.52,4.8H22V4.06a.75.75,0,1,0-1.49,0V4.8h-9V4.06a.75.75,0,1,0-1.49,0V4.8H8.59A4.48,4.48,0,0,0,4.12,9.28V24.21a4.48,4.48,0,0,0,4.47,4.48H23.52A4.48,4.48,0,0,0,28,24.21V9.28A4.48,4.48,0,0,0,23.52,4.8Zm3,19.41h0a3,3,0,0,1-3,3H8.59a3,3,0,0,1-3-3V12.27h20.9Zm0-13.43H5.61V9.28a3,3,0,0,1,3-3h1.5V7a.75.75,0,1,0,1.49,0V6.3h9V7A.75.75,0,1,0,22,7V6.3h1.49a3,3,0,0,1,3,3ZM11.8,21a.75.75,0,0,1,0-1.05.74.74,0,0,1,1,0l2.4,2.4,5.45-6.82h0a.75.75,0,0,1,1.05-.11.75.75,0,0,1,.12,1l-6,7.46a.71.71,0,0,1-.54.28h0a.75.75,0,0,1-.53-.22Z" fill="#bab9b9"/></svg>