<svg id="f03a9f2a-30e4-4cec-bcaa-4f7c1f7ee9b2" data-name="Layer 1" xmlns="http://www.w3.org/2000/svg" width="32" height="32" viewBox="0 0 32 32"><title>github</title><path d="M16.05,4a11.9,11.9,0,0,0-12,11.79A11.81,11.81,0,0,0,12.25,27c.6.11.82-.25.82-.57s0-1,0-2C9.72,25.13,9,22.84,9,22.84a3.1,3.1,0,0,0-1.33-1.73c-1.09-.73.08-.72.08-.72A2.53,2.53,0,0,1,9.6,21.61a2.59,2.59,0,0,0,3.5,1A2.45,2.45,0,0,1,13.86,21c-2.67-.29-5.47-1.31-5.47-5.82A4.56,4.56,0,0,1,9.62,12,4.18,4.18,0,0,1,9.73,8.9s1-.31,3.3,1.21a11.45,11.45,0,0,1,6,0c2.28-1.52,3.28-1.21,3.28-1.21A4.29,4.29,0,0,1,22.44,12a4.56,4.56,0,0,1,1.22,3.17c0,4.53-2.8,5.52-5.47,5.81A2.82,2.82,0,0,1,19,23.19c0,1.57,0,2.84,0,3.22s.21.68.83.56A11.77,11.77,0,0,0,28.05,15.8,11.9,11.9,0,0,0,16.05,4Z" fill="#bab9b9"/></svg>