<svg xmlns="http://www.w3.org/2000/svg" xmlns:xlink="http://www.w3.org/1999/xlink" width="127" height="124.4" viewBox="0 0 127 124.4"><defs><pattern id="bb4b7502-d5fb-492a-b666-077aba06dd3c" data-name="New Pattern" width="20" height="20" patternTransform="translate(-24.64 -22.01) scale(1.3)" patternUnits="userSpaceOnUse" viewBox="0 0 20 20"><rect width="20" height="20" fill="none"/><circle cx="10" cy="10" r="2.5" fill="#7693cc"/></pattern></defs><title>plus</title><g id="ab2da3bc-7e02-4e76-a862-ce6e70ceafb4" data-name="Layer 2"><g id="e4bebbf4-646c-4978-9dbc-a5c6c4dc2f1f" data-name="Layer 1"><polygon points="0 37.65 40.25 37.65 40.25 0 75.31 0 75.31 37.65 114.26 37.65 114.26 74.01 75.31 74.01 75.31 111.67 38.95 111.67 38.95 74.01 0 74.01 0 37.65" fill="#3e4a6d"/><polygon points="0 37.65 40.25 37.65 40.25 0 75.31 0 75.31 37.65 114.26 37.65 114.26 74.01 75.31 74.01 75.31 111.67 38.95 111.67 38.95 74.01 0 74.01 0 37.65" opacity="0.5" fill="url(#bb4b7502-d5fb-492a-b666-077aba06dd3c)"/><polygon points="9.74 47.39 49.99 47.39 49.99 9.74 85.05 9.74 85.05 47.39 124 47.39 124 83.75 85.05 83.75 85.05 121.4 48.69 121.4 48.69 83.75 9.74 83.75 9.74 47.39" fill="none" stroke="#d60057" stroke-miterlimit="10" stroke-width="6"/></g></g></svg>