<svg id="ef3a02da-763b-43c8-a461-423089aab7e2" data-name="Layer 1" xmlns="http://www.w3.org/2000/svg" width="32" height="32" viewBox="0 0 32 32"><title>twitter</title><path d="M28,9a10.38,10.38,0,0,1-2.84.78,4.94,4.94,0,0,0,2.17-2.72,9.66,9.66,0,0,1-3.12,1.19,4.92,4.92,0,0,0-8.51,3.37,5.13,5.13,0,0,0,.11,1.12A13.91,13.91,0,0,1,5.71,7.6,5,5,0,0,0,5,10.09a4.93,4.93,0,0,0,2.18,4.09A4.94,4.94,0,0,1,5,13.57v0a5,5,0,0,0,3.94,4.84,4.9,4.9,0,0,1-1.29.16,4.8,4.8,0,0,1-.93-.08A5,5,0,0,0,11.32,22a9.9,9.9,0,0,1-6.1,2.1A9.14,9.14,0,0,1,4,24a13.89,13.89,0,0,0,7.55,2.2,13.91,13.91,0,0,0,14-14c0-.21,0-.42,0-.63A9.86,9.86,0,0,0,28,9Z" fill="#bab9b9"/></svg>