<?xml version="1.0" standalone="no"?>
<!DOCTYPE svg PUBLIC "-//W3C//DTD SVG 20010904//EN"
 "http://www.w3.org/TR/2001/REC-SVG-20010904/DTD/svg10.dtd">
<svg version="1.0" xmlns="http://www.w3.org/2000/svg"
 width="700.000000pt" height="700.000000pt" viewBox="0 0 700.000000 700.000000"
 preserveAspectRatio="xMidYMid meet">
<metadata>
Created by potrace 1.11, written by Peter Selinger 2001-2013
</metadata>
<g transform="translate(0.000000,700.000000) scale(0.100000,-0.100000)"
fill="#000000" stroke="none">
<path d="M2585 5134 c-195 -44 -392 -159 -547 -322 -97 -103 -128 -157 -128
-226 0 -140 164 -246 297 -191 21 9 86 67 157 139 132 134 195 175 309 197
197 40 411 -127 449 -349 23 -134 -28 -289 -153 -472 -67 -98 -118 -155 -643
-715 -191 -203 -356 -387 -367 -407 -67 -130 -2 -289 130 -317 35 -7 263 -11
705 -11 729 0 722 -1 789 66 46 46 60 90 55 165 -5 73 -43 132 -107 166 l-44
23 -414 0 c-244 0 -413 4 -411 9 2 5 98 109 213 232 371 393 428 462 537 649
104 177 150 310 168 485 42 411 -184 754 -570 865 -101 30 -323 37 -425 14z"/>
<path d="M4747 5140 c-510 -92 -809 -548 -834 -1270 -23 -692 217 -1203 649
-1377 116 -47 236 -65 393 -60 168 6 261 27 390 91 358 176 563 596 582 1186
21 674 -196 1164 -600 1356 -125 59 -201 75 -377 79 -85 2 -177 0 -203 -5z
m265 -451 c215 -45 359 -259 410 -607 17 -112 16 -481 -1 -587 -48 -305 -156
-497 -323 -575 -116 -54 -261 -50 -380 11 -73 37 -152 128 -202 232 -81 167
-110 335 -110 627 0 291 29 461 109 625 73 150 165 234 296 269 66 18 131 20
201 5z"/>
</g>
</svg>
