<?xml version="1.0" standalone="no"?>
<!DOCTYPE svg PUBLIC "-//W3C//DTD SVG 20010904//EN"
 "http://www.w3.org/TR/2001/REC-SVG-20010904/DTD/svg10.dtd">
<svg version="1.0" xmlns="http://www.w3.org/2000/svg"
 width="700.000000pt" height="700.000000pt" viewBox="0 0 700.000000 700.000000"
 preserveAspectRatio="xMidYMid meet">
<metadata>
Created by potrace 1.11, written by Peter Selinger 2001-2013
</metadata>
<g transform="translate(0.000000,700.000000) scale(0.100000,-0.100000)"
fill="#000000" stroke="none">
<path d="M2554 5125 c-183 -47 -358 -150 -503 -294 -102 -103 -143 -172 -143
-240 0 -146 163 -253 299 -196 22 9 86 66 157 139 105 107 132 129 200 162 74
36 87 39 166 39 79 0 92 -3 162 -38 177 -87 266 -273 225 -470 -30 -144 -139
-331 -288 -492 -46 -49 -256 -273 -467 -498 -211 -225 -393 -428 -405 -451
-15 -29 -21 -59 -22 -106 0 -81 25 -133 84 -175 l43 -30 701 -3 c386 -2 717 0
735 3 37 7 106 64 128 106 8 16 14 56 14 91 0 78 -27 129 -88 173 l-44 30
-429 5 -430 5 222 235 c366 389 434 471 550 672 111 192 159 358 159 551 0
238 -77 434 -229 583 -155 151 -349 225 -594 224 -84 -1 -135 -7 -203 -25z"/>
<path d="M4800 5128 c-45 -12 -578 -341 -637 -393 -87 -75 -107 -177 -55 -276
52 -100 150 -147 245 -119 23 6 97 47 165 91 67 43 125 79 127 79 3 0 5 -424
5 -942 0 -897 1 -945 19 -983 37 -81 114 -127 211 -127 97 0 182 52 221 137
18 38 19 91 19 1200 0 788 -4 1172 -11 1198 -13 47 -72 115 -116 134 -37 15
-141 16 -193 1z"/>
</g>
</svg>
